<svg xmlns="http://www.w3.org/2000/svg" xmlns:xlink="http://www.w3.org/1999/xlink" viewBox="0 0 461.92 149.44"><defs><style>.cls-1{fill:url(#linear-gradient);}.cls-2{fill:#ffffff;}.cls-3{fill:#fff;}</style><linearGradient id="linear-gradient" y1="74.72" x2="140.79" y2="74.72" gradientUnits="userSpaceOnUse"><stop offset="0.03" stop-color="#981d57"/><stop offset="0.67" stop-color="#cf1d57"/><stop offset="1" stop-color="#f4794e"/></linearGradient></defs><g id="Layer_2" data-name="Layer 2"><g id="Layer_1-2" data-name="Layer 1"><path class="cls-1" d="M140,60.48C134.79,24.63,102.48-.54,66.73,0,49,.28,30.64,6.64,18.15,19.35A63.7,63.7,0,0,0,0,63.75q0,1.71.09,3.39a63.37,63.37,0,0,0,63.28,60c.78,0,1.56,0,2.33,0a4.59,4.59,0,0,1,4.7,4.61v13.05a4.69,4.69,0,0,0,5.17,4.66c36.46-3.34,65.22-41.5,65.22-78.63A71,71,0,0,0,140,60.48Z"/><path class="cls-2" d="M170.91,95.77q-6.6-6.76-6.6-19.46V42.63h8.46V76q0,19.05,16.67,19,8.13,0,12.44-4.69T206.2,76V42.63h8.21V76.31q0,12.78-6.6,19.51t-18.45,6.72Q177.51,102.54,170.91,95.77Z"/><path class="cls-2" d="M273,48.13q6.6,5.5,6.6,15.15T273,78.43q-6.6,5.49-18.11,5.5H240.22v17.94h-8.47V42.63h23.11Q266.36,42.63,273,48.13Zm-6.1,25q4.23-3.44,4.23-9.86t-4.23-9.86Q262.64,50,254.6,50H240.22V76.57H254.6Q262.64,76.57,266.87,73.14Z"/><path class="cls-2" d="M301.9,50H281.6V42.63h49V50H310.28v51.88H301.9Z"/><path class="cls-2" d="M349.55,98.61a29.1,29.1,0,0,1-11.3-10.87,29.82,29.82,0,0,1-4.1-15.49,29.82,29.82,0,0,1,4.1-15.49,29.1,29.1,0,0,1,11.3-10.87,34.95,34.95,0,0,1,32.24,0A28.87,28.87,0,0,1,393,56.72a30,30,0,0,1,4.06,15.53A30,30,0,0,1,393,87.78a28.87,28.87,0,0,1-11.25,10.83,35,35,0,0,1-32.24,0Zm27.88-6.56a21.69,21.69,0,0,0,8.21-8.17,24.06,24.06,0,0,0,0-23.27,21.66,21.66,0,0,0-8.21-8.16,23.23,23.23,0,0,0-11.72-3,23.66,23.66,0,0,0-11.8,3,21.48,21.48,0,0,0-8.3,8.16,24.06,24.06,0,0,0,0,23.27,21.51,21.51,0,0,0,8.3,8.17,23.66,23.66,0,0,0,11.8,3A23.23,23.23,0,0,0,377.43,92.05Z"/><path class="cls-2" d="M429.34,75.55l-10.83,11v15.32h-8.46V42.63h8.46V75.72l32.16-33.09h9.65L435,69.29l26.91,32.58H452Z"/><path class="cls-3" d="M95.47,69.47l-36,20.77A5.65,5.65,0,0,1,51,85.35V43.82a5.65,5.65,0,0,1,8.47-4.89l36,20.77A5.64,5.64,0,0,1,95.47,69.47Z"/></g></g></svg>